# xmcd CD database file
# Copyright (C) 1997 Ti Kan
# 
# Track frame offsets:
#     150
#     18658
#     35220
#     54468
#     70150
#     86010
#     102243
#     120140
#     150683
#     168183
#     188165
#     209143
#     222625
#     236988
# 
# Disc length: 3349 seconds
# 
# Revision: 1
# Processed by: cddbd v1.4b41PL1 Copyright (c) Steve Scherf et al.
# Submitted via: DiscPlay 4.0.3
# 
DISCID=cc0d130e
DTITLE=Western Union - Greatest Hits Live
DYEAR=1900
DGENRE=
TTITLE0=Ich m cht' so gerne mal nach Nashville
TTITLE1=Dieselcowboys und Country Music
TTITLE2=Gott, ich hoff der Tag wird gut
TTITLE3=Auf der Autobahn
TTITLE4=Wer glaubst Du wer Du bist
TTITLE5=Unser Lied im Radio
TTITLE6=Bi-Ba-Baby
TTITLE7=Transit Cowboy
TTITLE8=Eigentlich brauch ich nur Dich
TTITLE9=B renstark
TTITLE10=Der liebe Gott der muss'n Cowboy sein
TTITLE11=Oh lonesome me
TTITLE12=Tulsa time
TTITLE13=Gimme gimme hust one more chance
EXTD=
EXTT0=
EXTT1=
EXTT2=
EXTT3=
EXTT4=
EXTT5=
EXTT6=
EXTT7=
EXTT8=
EXTT9=
EXTT10=
EXTT11=
EXTT12=
EXTT13=
PLAYORDER=
